<svg width="29" height="36" viewBox="0 0 29 36" fill="none" xmlns="http://www.w3.org/2000/svg">
<path d="M28.0738 12.2736C27.8672 12.4356 24.2195 14.5131 24.2195 19.1323C24.2195 24.4752 28.8611 26.3654 29 26.4122C28.9786 26.5275 28.2626 29.0009 26.5528 31.5212C25.0281 33.739 23.4358 35.9532 21.0135 35.9532C18.5912 35.9532 17.9678 34.5311 15.1715 34.5311C12.4464 34.5311 11.4775 36 9.26176 36C7.04606 36 5.50006 33.9478 3.72252 31.4275C1.66355 28.468 0 23.8704 0 19.5068C0 12.5077 4.50264 8.79568 8.93404 8.79568C11.2887 8.79568 13.2514 10.3582 14.7298 10.3582C16.1368 10.3582 18.3312 8.70207 21.01 8.70207C22.0252 8.70207 25.6729 8.79568 28.0738 12.2736ZM19.7382 5.73897C20.8461 4.41044 21.6298 2.56706 21.6298 0.723672C21.6298 0.468047 21.6084 0.208821 21.5621 0C19.7596 0.0684068 17.6152 1.21332 16.3221 2.72907C15.3068 3.89559 14.3593 5.73897 14.3593 7.60756C14.3593 7.88839 14.4056 8.16922 14.427 8.25923C14.541 8.28083 14.7262 8.30603 14.9114 8.30603C16.5287 8.30603 18.5627 7.21152 19.7382 5.73897Z" fill="#D3D3D3"/>
</svg>
