<svg width="29" height="30" viewBox="0 0 29 30" fill="none" xmlns="http://www.w3.org/2000/svg">
<path d="M7.01588 12.5327C8.12881 9.16037 11.298 6.73837 15.0518 6.73837C17.0697 6.73837 18.8923 7.4544 20.3243 8.62607L24.4903 4.46012C21.9517 2.24696 18.697 0.880005 15.0518 0.880005C9.40725 0.880005 4.54746 4.10008 2.21112 8.81596L7.01588 12.5327Z" fill="#EA4335"/>
<path d="M19.874 22.3755C18.5734 23.2153 16.9208 23.6623 15.0519 23.6623C11.3124 23.6623 8.15316 21.2588 7.02884 17.9066L2.20819 21.5668C4.54162 26.291 9.40128 29.5207 15.0519 29.5207C18.5519 29.5207 21.8963 28.2765 24.401 25.9401L19.874 22.3755Z" fill="#34A853"/>
<path d="M24.4009 25.9401C27.0203 23.4967 28.7213 19.8588 28.7213 15.2003C28.7213 14.3541 28.5911 13.4428 28.3958 12.5966H15.0518V18.1295H22.7327C22.3537 19.99 21.3364 21.4311 19.8738 22.3755L24.4009 25.9401Z" fill="#4A90E2"/>
<path d="M7.02885 17.9071C6.74404 17.0579 6.58982 16.1479 6.58982 15.2006C6.58982 14.2678 6.7394 13.371 7.01598 12.5329L2.21121 8.81613C1.25246 10.7379 0.731445 12.9039 0.731445 15.2006C0.731445 17.4914 1.26223 19.6521 2.2082 21.5673L7.02885 17.9071Z" fill="#FBBC05"/>
</svg>
