<svg width="26" height="24" viewBox="0 0 26 24" fill="none" xmlns="http://www.w3.org/2000/svg">
<path fill-rule="evenodd" clip-rule="evenodd" d="M23.3214 2.5915C21.7725 1.01202 20.0483 0.523393 18.4291 0.641931C16.8537 0.757263 15.4349 1.44066 14.3986 2.098C13.5815 2.61637 12.4183 2.61637 11.6011 2.098C10.5649 1.44067 9.14607 0.757279 7.57065 0.641949C5.95144 0.523414 4.22724 1.01204 2.67842 2.5915C0.849931 4.45617 0.276261 6.75803 0.506624 9.08643C0.734331 11.388 1.74388 13.7277 3.09035 15.8008C4.4404 17.8795 6.16496 19.7458 7.89509 21.1009C9.58716 22.4262 11.4282 23.375 12.9999 23.375C14.5716 23.375 16.4127 22.4262 18.1047 21.1009C19.8348 19.7458 21.5594 17.8795 22.9095 15.8008C24.2559 13.7277 25.2655 11.388 25.4932 9.08643C25.7235 6.75803 25.1499 4.45617 23.3214 2.5915ZM15.3361 3.57575C16.2524 2.99447 17.3866 2.47293 18.5569 2.38726C19.6833 2.3048 20.8975 2.6191 22.0719 3.81675C23.4756 5.2483 23.9404 7.00652 23.7517 8.91413C23.5603 10.8486 22.6932 12.9208 21.4418 14.8476C20.194 16.7688 18.5995 18.4904 17.0256 19.7232C15.4137 20.9858 13.9658 21.625 12.9999 21.625C12.034 21.625 10.5861 20.9858 8.97418 19.7232C7.40029 18.4904 5.80577 16.7688 4.55797 14.8476C3.30658 12.9208 2.43951 10.8486 2.24812 8.91413C2.05939 7.00652 2.52415 5.2483 3.92792 3.81676C5.10232 2.61912 6.31643 2.30482 7.44288 2.38728C8.61312 2.47295 9.74734 2.99448 10.6637 3.57576C12.0531 4.45712 13.9466 4.45712 15.3361 3.57575Z" fill="#737373"/>
</svg>
