<svg width="17" height="16" viewBox="0 0 17 16" fill="none" xmlns="http://www.w3.org/2000/svg">
<path d="M16.3958 1.5C16.3958 1.05127 16.0321 0.6875 15.5833 0.6875C15.1346 0.6875 14.7708 1.05127 14.7708 1.5V14.5C14.7708 14.9487 15.1346 15.3125 15.5833 15.3125C16.0321 15.3125 16.3958 14.9487 16.3958 14.5V1.5Z" fill="#A7A7A7"/>
<path d="M9.40057 2.85615C8.19726 2.14925 7.2445 1.58954 6.46621 1.22433C5.68419 0.857361 4.95498 0.624289 4.22177 0.702701C3.10414 0.822224 2.09321 1.41824 1.43768 2.33628C1.00952 2.93591 0.844147 3.68698 0.765648 4.55759C0.687487 5.42446 0.687493 6.54261 0.6875 7.95781V8.04218C0.687492 9.45738 0.687486 10.5755 0.765647 11.4424C0.844145 12.313 1.00952 13.0641 1.43768 13.6637C2.0932 14.5818 3.10414 15.1778 4.22177 15.2973C4.95497 15.3757 5.68419 15.1426 6.46621 14.7757C7.24449 14.4105 8.19723 13.8508 9.40054 13.1439L9.47492 13.1002C10.6785 12.3932 11.6312 11.8335 12.331 11.3304C13.0354 10.824 13.5936 10.3007 13.8899 9.62355C14.3423 8.58978 14.3423 7.41023 13.8899 6.37646C13.5936 5.69933 13.0354 5.17603 12.331 4.6696C11.6312 4.16651 10.6785 3.60686 9.47495 2.89985L9.40057 2.85615Z" fill="#A7A7A7"/>
</svg>
