<svg width="29" height="29" viewBox="0 0 29 29" fill="none" xmlns="http://www.w3.org/2000/svg">
<circle cx="14.5" cy="14.5" r="14.5" fill="#2C2C2C"/>
<path d="M16.8443 10.9352C15.8339 10.3591 15.0491 9.91164 14.4117 9.62134C13.7719 9.32996 13.2166 9.1654 12.6766 9.22145C11.8195 9.31041 11.0393 9.75448 10.5309 10.4456C10.2097 10.8822 10.076 11.4425 10.0116 12.1361C9.94738 12.827 9.94738 13.7225 9.94739 14.8741V14.9221C9.94738 16.0737 9.94738 16.9691 10.0116 17.66C10.076 18.3537 10.2097 18.914 10.5309 19.3505C11.0393 20.0416 11.8195 20.4857 12.6766 20.5747C13.2166 20.6307 13.7719 20.4662 14.4117 20.1748C15.0491 19.8845 15.8339 19.437 16.8443 18.8609L16.8853 18.8375C17.8956 18.2615 18.6804 17.814 19.2538 17.4139C19.8287 17.0128 20.2526 16.6191 20.4748 16.1261C20.8271 15.3445 20.8271 14.4516 20.4748 13.67C20.2526 13.1771 19.8287 12.7834 19.2538 12.3822C18.6804 11.9821 17.8956 11.5346 16.8853 10.9586L16.8443 10.9352Z" fill="#959595"/>
</svg>
