<svg width="17" height="16" viewBox="0 0 17 16" fill="none" xmlns="http://www.w3.org/2000/svg">
<path d="M2.22919 1.5C2.22919 1.05127 1.86542 0.6875 1.41669 0.6875C0.967956 0.6875 0.604187 1.05127 0.604187 1.5V14.5C0.604187 14.9487 0.967956 15.3125 1.41669 15.3125C1.86542 15.3125 2.22919 14.9487 2.22919 14.5L2.22919 1.5Z" fill="#A7A7A7"/>
<path d="M12.7783 0.702699C12.045 0.624287 11.3158 0.857359 10.5338 1.22432C9.75553 1.58953 8.8028 2.14923 7.5995 2.85613L7.52509 2.89984C6.32156 3.60685 5.36886 4.16651 4.66904 4.66959C3.96458 5.17602 3.4064 5.69932 3.11011 6.37645C2.65777 7.41022 2.65777 8.58978 3.11011 9.62354C3.4064 10.3007 3.96458 10.824 4.66904 11.3304C5.36886 11.8335 6.32155 12.3931 7.52507 13.1001L7.59952 13.1439C8.80281 13.8508 9.75554 14.4105 10.5338 14.7757C11.3158 15.1426 12.045 15.3757 12.7783 15.2973C13.8959 15.1778 14.9068 14.5818 15.5623 13.6637C15.9905 13.0641 16.1559 12.313 16.2344 11.4424C16.3125 10.5755 16.3125 9.45739 16.3125 8.04218V7.95779C16.3125 6.5426 16.3125 5.42446 16.2344 4.55759C16.1559 3.68698 15.9905 2.93591 15.5623 2.33628C14.9068 1.41824 13.8959 0.822223 12.7783 0.702699Z" fill="#A7A7A7"/>
</svg>
