<svg width="18" height="20" viewBox="0 0 18 20" fill="none" xmlns="http://www.w3.org/2000/svg">
<path d="M12.7803 0.46967C12.4874 0.176777 12.0125 0.176777 11.7196 0.46967C11.4267 0.762563 11.4267 1.23744 11.7196 1.53033L12.4393 2.25L7.83813 2.24998C6.13186 2.24971 5.09064 2.24955 4.22312 2.53142C2.47261 3.1002 1.10017 4.47263 0.531397 6.22315C0.249523 7.09067 0.249687 8.13188 0.249955 9.83816V10.1618C0.249687 11.8681 0.249523 12.9093 0.531397 13.7768C0.659396 14.1708 1.08251 14.3864 1.47645 14.2584C1.87039 14.1304 2.08598 13.7073 1.95798 13.3133C1.75923 12.7016 1.74997 11.9197 1.74997 10C1.74997 8.08034 1.75923 7.29839 1.95798 6.68668C2.37838 5.39282 3.39279 4.37841 4.68665 3.95801C5.29836 3.75925 6.08032 3.75 7.99997 3.75H12.1784L11.5198 4.29883C11.2016 4.56401 11.1586 5.03693 11.4238 5.35514C11.689 5.67335 12.1619 5.71634 12.4801 5.45117L13.8889 4.27719C14.2731 3.95697 14.4839 3.5078 14.5146 3.05027C14.547 2.5677 14.3796 2.06894 14.006 1.69537L12.7803 0.46967Z" fill="#6D6D6D"/>
<path d="M17.4685 6.22315C17.3405 5.82921 16.9174 5.61362 16.5235 5.74162C16.1296 5.86962 15.914 6.29274 16.042 6.68668C16.2407 7.29839 16.25 8.08034 16.25 10C16.25 11.9197 16.2407 12.7016 16.042 13.3133C15.6216 14.6072 14.6072 15.6216 13.3133 16.042C12.7016 16.2407 11.9196 16.25 9.99997 16.25H7.99997C7.03271 16.25 6.35438 16.2478 5.84071 16.2199L6.5303 15.5303C6.8232 15.2374 6.8232 14.7626 6.5303 14.4697C6.23741 14.1768 5.76254 14.1768 5.46964 14.4697L4.24395 15.6954C3.97569 15.9636 3.81256 16.2982 3.755 16.6453C3.65771 17.2321 3.8623 17.8616 4.36106 18.2772L5.76983 19.4512C6.08804 19.7163 6.56096 19.6733 6.82614 19.3551C7.09131 19.0369 7.04832 18.564 6.73011 18.2988L6.04884 17.7311C6.55813 17.7502 7.14543 17.7501 7.84421 17.75H10.1618C11.8681 17.7503 12.9093 17.7504 13.7768 17.4686C15.5273 16.8998 16.8998 15.5274 17.4685 13.7768C17.7504 12.9093 17.7503 11.8681 17.75 10.1618V9.83817C17.7503 8.13189 17.7504 7.09067 17.4685 6.22315Z" fill="#6D6D6D"/>
</svg>
