<svg width="25" height="25" viewBox="0 0 25 25" fill="none" xmlns="http://www.w3.org/2000/svg">
<path fill-rule="evenodd" clip-rule="evenodd" d="M11.4584 0.260437C5.84923 0.260437 1.30212 4.80755 1.30212 10.4167C1.30212 16.0258 5.84923 20.5729 11.4584 20.5729C17.0675 20.5729 21.6146 16.0258 21.6146 10.4167C21.6146 4.80755 17.0675 0.260437 11.4584 0.260437ZM2.86462 10.4167C2.86462 5.67049 6.71218 1.82294 11.4584 1.82294C16.2046 1.82294 20.0521 5.67049 20.0521 10.4167C20.0521 15.1629 16.2046 19.0104 11.4584 19.0104C6.71218 19.0104 2.86462 15.1629 2.86462 10.4167Z" fill="#CFCFCF"/>
<path d="M20.3442 18.1977C20.0391 17.8926 19.5445 17.8926 19.2394 18.1977C18.9343 18.5028 18.9342 18.9974 19.2393 19.3025L23.4059 23.4692C23.711 23.7743 24.2057 23.7743 24.5108 23.4692C24.8159 23.1641 24.8159 22.6694 24.5108 22.3643L20.3442 18.1977Z" fill="#CFCFCF"/>
</svg>
