<svg width="17" height="18" viewBox="0 0 17 18" fill="none" xmlns="http://www.w3.org/2000/svg">
<path d="M14.7803 0.46967C14.4874 0.176777 14.0126 0.176777 13.7197 0.46967C13.4268 0.762563 13.4268 1.23744 13.7197 1.53033L14.444 2.25467C12.6098 2.32853 10.9151 3.27533 9.89163 4.81047L4.8603 12.3575C4.07207 13.5398 2.74508 14.25 1.32408 14.25H1C0.585786 14.25 0.25 14.5858 0.25 15C0.25 15.4142 0.585786 15.75 1 15.75H1.32408C3.24661 15.75 5.04194 14.7892 6.10837 13.1895L11.1397 5.64252C11.8273 4.61106 12.925 3.93895 14.1374 3.7842L13.5199 4.29883C13.2017 4.56401 13.1587 5.03693 13.4238 5.35514C13.689 5.67335 14.1619 5.71634 14.4801 5.45117L15.8889 4.27719C16.2732 3.95697 16.4839 3.5078 16.5146 3.05027C16.5471 2.5677 16.3796 2.06894 16.006 1.69537L14.7803 0.46967Z" fill="#6D6D6D"/>
<path d="M1 2.25C0.585786 2.25 0.25 2.58579 0.25 3C0.25 3.41421 0.585786 3.75 1 3.75H1.32408C2.74508 3.75 4.07206 4.46018 4.86029 5.64252C5.09006 5.98717 5.55571 6.0803 5.90036 5.85054C6.245 5.62077 6.33813 5.15512 6.10837 4.81047C5.04194 3.21083 3.24661 2.25 1.32408 2.25H1Z" fill="#6D6D6D"/>
<path d="M11.1397 12.3575C10.9099 12.0128 10.4443 11.9197 10.0996 12.1495C9.755 12.3792 9.66187 12.8449 9.89163 13.1895C10.8699 14.6569 12.4614 15.5867 14.2019 15.7305L13.5199 16.2988C13.2017 16.564 13.1587 17.0369 13.4238 17.3551C13.689 17.6733 14.1619 17.7163 14.4801 17.4512L15.8889 16.2772C16.2732 15.957 16.4839 15.5078 16.5146 15.0503C16.5471 14.5677 16.3796 14.0689 16.006 13.6954L14.7803 12.4697C14.4874 12.1768 14.0126 12.1768 13.7197 12.4697C13.4268 12.7626 13.4268 13.2374 13.7197 13.5303L14.4324 14.243C13.1044 14.167 11.8827 13.472 11.1397 12.3575Z" fill="#6D6D6D"/>
</svg>
