<svg width="15" height="9" viewBox="0 0 15 9" fill="none" xmlns="http://www.w3.org/2000/svg">
<path d="M13.2703 7.76524C13.6469 8.14524 14.2603 8.14798 14.6403 7.77135C15.0203 7.39472 15.023 6.78135 14.6464 6.40135L12.3488 4.08315C11.4835 3.21002 10.7762 2.49641 10.146 1.99032C9.49075 1.46406 8.82562 1.08311 8.02722 0.981342C7.67714 0.936721 7.32288 0.936721 6.9728 0.981342C6.1744 1.08311 5.50927 1.46406 4.85398 1.99032C4.22381 2.4964 3.51657 3.21001 2.65123 4.08313L0.353617 6.40135C-0.0230114 6.78135 -0.0202755 7.39472 0.359729 7.77135C0.739734 8.14798 1.35311 8.14524 1.72974 7.76524L3.98667 5.48807C4.90264 4.56389 5.53303 3.92994 6.06717 3.50098C6.58603 3.08429 6.9193 2.94134 7.21777 2.90329C7.40519 2.8794 7.59483 2.8794 7.78224 2.90329C8.08072 2.94134 8.41399 3.08429 8.93285 3.50098C9.46699 3.92994 10.0974 4.56389 11.0133 5.48807L13.2703 7.76524Z" fill="#8C8989"/>
</svg>
